<svg xmlns="http://www.w3.org/2000/svg" width="1200" height="600" viewBox="0 0 1200 600">
  <style>text{font-family:Segoe UI,Arial;fill:#222} .title{font-size:28px;font-weight:700;} .sub{font-size:14px;fill:#666} .box{fill:#fff;stroke:#e6e6e6;stroke-width:1;filter:drop-shadow(0 2px 6px rgba(0,0,0,0.08))}</style>
  <rect width="100%" height="100%" fill="#0f172a" />
  <g transform="translate(48,48)">
    <rect class="box" x="0" y="0" width="1104" height="504" rx="8"/>
    <text class="title" x="24" y="40" fill="#111">ChromaDB Viewer — Explorer</text>
    <text class="sub" x="24" y="66">Tenant → Database → Collection → Records (pagination, add/edit/delete)</text>
    <g transform="translate(24,96)">
      <rect x="0" y="0" width="220" height="360" rx="6" fill="#0b1220" stroke="#111827"/>
      <text x="18" y="28" fill="#9ca3af" style="font-size:13px">Activity Bar → ChromaDB</text>
      <g transform="translate(12,56)" fill="#c7d2fe">
        <rect x="0" y="0" width="196" height="28" rx="4" fill="#0b1220" stroke="#1f2937"/>
        <text x="12" y="18" fill="#e6edf3">default_tenant</text>
        <rect x="0" y="40" width="196" height="28" rx="4" fill="#0b1220" stroke="#1f2937"/>
        <text x="12" y="58" fill="#e6edf3">default_database</text>
        <rect x="0" y="80" width="196" height="28" rx="4" fill="#111827" stroke="#374151"/>
        <text x="12" y="98" fill="#a7f3d0">example_collection (3)</text>
      </g>
      <rect x="240" y="0" width="780" height="360" rx="6" fill="#ffffff"/>
      <text x="260" y="28" fill="#0f172a" style="font-size:14px">Records (preview)</text>
      <g transform="translate(260,48)">
        <rect x="0" y="0" width="740" height="48" rx="6" fill="#f8fafc" stroke="#e6e6e6"/>
        <text x="12" y="30" fill="#0f172a">r1 — Hello world — metadata: {source: demo}</text>
        <rect x="0" y="64" width="740" height="48" rx="6" fill="#fff" stroke="#e6e6e6"/>
        <text x="12" y="94" fill="#0f172a">r2 — Sample doc — metadata: {source: demo}</text>
      </g>
    </g>
  </g>
</svg>